Coordinates
version=1
nRows=38
nColumns=12
inDegrees=yes

Units are S.I. units (second, meters, Newtons, ...)
Angles are in degrees

endheader
time	SC_y	SC_z	SC_x	AC_y	AC_z	AC_x	GH_y	GH_z	GH_yy	EL_x	PS_y
       0.0              -59.17           24.9          37.06          54.57         -19.21        -0.6657          103.7         -18.68          82.29          78.97          133.8
   0.01165              -59.17           24.9          37.06          54.57         -19.21        -0.6684          103.7         -18.67          82.27          78.97          133.8
   0.02331              -59.16           24.9          37.06          54.57          -19.2        -0.6713          103.7         -18.66          82.25          78.97          133.8
   0.03496              -59.16           24.9          37.05          54.57          -19.2        -0.6744          103.6         -18.64          82.23          78.97          133.8
   0.04661              -59.16           24.9          37.05          54.57          -19.2        -0.6776          103.6         -18.63           82.2          78.97          133.8
   0.05827              -59.15           24.9          37.04          54.57          -19.2        -0.6811          103.6         -18.61          82.18          78.97          133.8
   0.06992              -59.15           24.9          37.04          54.57         -19.19        -0.6848          103.6          -18.6          82.15          78.97          133.8
   0.08157              -59.14          24.89          37.03          54.56         -19.19        -0.6888          103.6         -18.58          82.12          78.97          133.8
   0.09323              -59.14          24.89          37.03          54.56         -19.19        -0.6931          103.5         -18.56          82.09          78.97          133.8
    0.1049              -59.13          24.89          37.02          54.56         -19.18        -0.6976          103.5         -18.55          82.05          78.97          133.8
    0.1165              -59.13          24.89          37.02          54.56         -19.18        -0.7025          103.5         -18.52          82.02          78.97          133.8
    0.1282              -59.12          24.88          37.01          54.56         -19.18        -0.7078          103.5          -18.5          81.98          78.97          133.8
    0.1398              -59.12          24.88           37.0          54.56         -19.17        -0.7135          103.4         -18.48          81.94          78.97          133.8
    0.1515              -59.11          24.88          36.99          54.56         -19.17        -0.7196          103.4         -18.45          81.89          78.97          133.8
    0.1631               -59.1          24.88          36.98          54.55         -19.16        -0.7263          103.4         -18.43          81.84          78.97          133.8
    0.1748               -59.1          24.87          36.97          54.55         -19.16        -0.7335          103.3         -18.39          81.79          78.97          133.8
    0.1865              -59.09          24.87          36.96          54.55         -19.15        -0.7413          103.3         -18.36          81.73          78.97          133.8
    0.1981              -59.08          24.86          36.95          54.55         -19.14        -0.7499          103.3         -18.33          81.67          78.97          133.9
    0.2098              -59.07          24.86          36.94          54.55         -19.14        -0.7592          103.2         -18.29           81.6          78.97          133.9
    0.2214              -59.06          24.85          36.93          54.54         -19.13        -0.7694          103.2         -18.24          81.52          78.97          133.9
    0.2331              -59.05          24.85          36.91          54.54         -19.12        -0.7806          103.1          -18.2          81.44          78.97          133.9
    0.2447              -59.03          24.84           36.9          54.54         -19.11         -0.793          103.1         -18.15          81.35          78.97          133.9
    0.2564              -59.02          24.84          36.88          54.53          -19.1        -0.8066          103.0         -18.09          81.25          78.97          133.9
     0.268               -59.0          24.83          36.86          54.53         -19.09        -0.8217          102.9         -18.03          81.14          78.97          133.9
    0.2797              -58.99          24.82          36.84          54.52         -19.08        -0.8385          102.8         -17.96          81.01          78.97          133.9
    0.2913              -58.97          24.81          36.81          54.52         -19.06        -0.8572          102.7         -17.88          80.87          78.97          133.9
     0.303              -58.94           24.8          36.78          54.51         -19.04        -0.8782          102.6         -17.79          80.72          78.96          134.0
    0.3146              -58.92          24.79          36.75          54.51         -19.03        -0.9018          102.5         -17.69          80.54          78.96          134.0
    0.3263              -58.89          24.78          36.72           54.5         -19.01        -0.9285          102.4         -17.58          80.35          78.96          134.0
    0.3379              -58.86          24.76          36.68          54.49         -18.98        -0.9588          102.2         -17.45          80.12          78.96          134.0
    0.3496              -58.82          24.74          36.63          54.48         -18.95        -0.9933          102.1         -17.31          79.87          78.96          134.1
    0.3612              -58.78          24.73          36.58          54.47         -18.92         -1.033          101.9         -17.14          79.57          78.96          134.1
    0.3729              -58.73           24.7          36.52          54.46         -18.89         -1.079          101.6         -16.95          79.23          78.96          134.1
    0.3846              -58.67          24.68          36.45          54.45         -18.85         -1.132          101.4         -16.72          78.84          78.96          134.2
    0.3962              -58.61          24.65          36.36          54.43          -18.8         -1.194          101.1         -16.46          78.38          78.95          134.2
    0.4079              -58.53          24.61          36.27          54.41         -18.74         -1.268          100.7         -16.16          77.83          78.95          134.3
    0.4195              -58.44          24.57          36.15          54.39         -18.67         -1.355          100.3         -15.79          77.19          78.95          134.4
    0.4312              -58.33          24.52          36.01          54.36         -18.59         -1.459          99.77         -15.35          76.42          78.95          134.4
